<svg width="209" height="40" viewBox="0 0 209 40" fill="none" xmlns="http://www.w3.org/2000/svg">
<path d="M144.715 28.3613C144.715 26.6454 146.063 25.5422 147.748 25.5422C149.464 25.5422 150.781 26.6454 150.781 28.3613C150.781 30.0772 149.464 31.1495 147.748 31.1495C146.063 31.1495 144.715 30.0772 144.715 28.3613ZM57.4645 8.72009C51.8876 8.72009 46.4031 12.4584 46.4031 19.8735C46.4031 27.3193 51.7039 30.9963 57.3726 30.9963C63.8684 30.9963 68.4035 26.4308 68.4035 19.8735C68.4035 12.4584 62.9492 8.72009 57.4645 8.72009ZM57.4033 25.6957C54.6456 25.6957 52.0104 23.7037 52.0104 19.8737C52.0104 15.9517 54.6762 14.0518 57.4646 14.0518C60.1305 14.0518 62.7964 16.0435 62.7964 19.8737C62.7962 23.7037 60.0691 25.6957 57.4033 25.6957ZM77.5943 25.5422H85.3466V30.5675H71.987V9.11844H77.5943V25.5422ZM97.214 25.5729H99.941V30.5981H88.8796V25.5729H91.6067V14.1744H89.1247V9.14912H99.6959V14.1744H97.214V25.5729ZM123 9.08795H124.992V30.5981H119.385V20.7009L114.819 25.4808H114.176L109.61 20.7009V30.5981H104.003V9.08795H105.994L114.513 18.3724L123 9.08795ZM138.498 9.11844C135.311 9.08775 132.217 9.11844 129.03 9.11844V30.5675H134.637V25.0213H138.498C143.585 25.0213 146.189 21.0993 146.189 17.1772C146.281 13.1326 143.646 9.11844 138.498 9.11844ZM138.498 20.1495H134.545V13.9906H138.498C140.03 13.9906 140.827 15.4919 140.827 17.0239C140.827 18.5866 139.969 20.1495 138.498 20.1495ZM169.631 19.3526C170.703 18.4948 171.407 16.9626 171.407 15.645C171.407 11.6615 168.619 9.05726 164.636 9.05726H155.168V30.4756H165.494C169.906 30.4756 172.296 27.6258 172.296 23.949C172.296 21.988 171.377 20.2414 169.631 19.3526ZM160.775 13.9293H164.238C165.371 13.9293 165.923 14.879 165.892 15.8289C165.862 16.687 165.31 17.5142 164.238 17.5142H160.775V13.9293ZM165.096 25.6034H160.775V22.0492H165.065C165.432 22.0492 165.708 22.141 165.984 22.2636C166.505 22.6313 166.781 23.3052 166.75 23.9488C166.658 24.8069 166.168 25.6034 165.096 25.6034ZM181.689 25.4808H189.748V30.5979H176.082V9.14912H189.472V14.0211H181.689V17.0851H188.859V21.9878H181.689V25.4808H181.689ZM209 9.14912V14.0518H203.761V30.5981H198.337V14.0518H193.066V9.14912H209Z" fill="white"/>
<path d="M19.7703 0.995361C9.40124 0.995361 0.995361 9.40124 0.995361 19.7703C0.995361 30.1395 9.40124 38.5453 19.7703 38.5453C30.1395 38.5453 38.5453 30.1395 38.5453 19.7703C38.5453 9.40124 30.1395 0.995361 19.7703 0.995361Z" fill="#771610"/>
<path d="M26.1503 10.121C26.3426 10.1204 26.5236 10.1304 26.6949 10.1493C26.7673 10.2908 26.8476 10.4247 26.9359 10.5495C27.3545 11.1405 27.9259 11.5133 28.6331 11.6652C27.5193 11.7427 26.6912 11.3629 26.1503 10.121ZM26.5575 9.84444C26.4367 9.54474 26.3474 9.21674 26.2906 8.86582C25.5109 7.72997 23.669 7.63173 21.5854 8.269C22.8665 10.0756 24.6126 10.4642 26.5575 9.84444ZM23.4476 7.53269C24.4436 7.45876 25.2843 7.61539 25.8995 8.00198C26.0186 8.0769 26.1244 8.16319 26.2247 8.25385C26.2077 7.93801 26.2149 7.60881 26.2454 7.26985C25.4979 6.33028 24.1227 5.83589 22.1531 5.83888C22.5144 6.58057 22.9466 7.13275 23.4476 7.53269ZM28.6291 11.2927C29.0436 11.7533 29.5224 12.1951 29.9351 12.537C29.8269 12.3005 29.7346 12.0482 29.6513 11.7778C29.427 11.5988 29.1944 11.39 28.9724 11.168C29.6517 9.57283 28.75 8.05737 26.7155 6.53235C26.2984 8.68269 26.8075 10.8412 28.6291 11.2927ZM31.4013 16.0749C31.4613 16.1436 31.5109 16.21 31.5568 16.2755C31.5598 16.0097 31.5905 15.7301 31.6532 15.436C31.6504 15.0849 31.5843 14.7615 31.4627 14.4664C30.9113 13.9949 30.5154 13.5485 30.2145 13.0587C29.5868 12.6568 28.8017 12.378 27.9565 12.2196C28.1861 14.554 29.7119 16.0561 31.4013 16.0749ZM31.8465 14.3151C31.8413 14.4518 31.8471 14.5861 31.8625 14.7192C31.9872 14.3813 32.1552 14.0246 32.3714 13.6483C32.7556 12.1293 32.158 10.3358 29.5103 9.34547C29.9455 12.0221 30.2496 13.0055 31.8465 14.3151ZM32.1267 17.5202C32.4254 17.8358 32.6731 18.1515 32.8714 18.4721C34.3023 17.4421 34.3813 15.2563 33.2713 12.9322C31.8635 14.8623 31.6761 16.2498 32.1267 17.5202ZM30.1714 16.3455C30.5176 19.9786 30.7988 20.851 32.4647 22.1776C32.3563 21.1764 32.4999 20.2263 32.8971 19.3023C32.5163 18.331 31.6608 17.401 30.1714 16.3455ZM34.5006 17.4885C32.5125 19.767 32.5591 21.8436 33.1623 23.6175C32.9429 23.8044 32.7478 23.9047 32.5563 24.0023C32.5175 24.0222 32.4782 24.0424 32.4388 24.0631C32.544 23.8483 32.6392 23.6271 32.7155 23.4017C32.6163 23.0635 32.544 22.7321 32.4967 22.4059C32.372 23.5324 31.7076 24.6493 31.1419 25.3125C31.4643 25.0931 31.8115 24.894 32.1783 24.7205C32.3818 24.5515 32.5934 24.4102 32.8018 24.2739C33.0312 24.1239 33.255 23.9766 33.456 23.7986C34.7872 23.4166 35.8573 20.5035 34.5006 17.4885ZM30.0417 26.2294C30.2031 26.0658 30.3747 25.9059 30.5584 25.7531C30.6704 25.4948 30.7661 25.2204 30.836 24.9351C31.6475 23.6825 31.2914 22.0558 29.9499 19.8963C28.9559 22.1433 29.3913 24.2651 30.3693 25.1025C30.2695 25.3599 30.1501 25.6005 30.0226 25.8201C30.0343 25.9592 30.0407 26.0957 30.0417 26.2294ZM28.972 28.8998C28.8427 28.9201 28.7201 28.9534 28.6044 28.9972C28.6394 28.2193 29.0565 27.3383 29.7564 26.5346C29.8062 25.787 29.6653 24.9186 29.296 23.9326C27.6704 25.4652 27.5084 27.0805 28.2014 28.963C28.0331 29.1879 27.8465 29.406 27.6526 29.6128C27.8824 29.5564 28.1265 29.5369 28.389 29.5572C28.6534 29.3583 28.9272 29.2224 29.201 29.1517C31.556 29.5907 32.6095 28.6113 34.0116 24.4965C31.1236 25.0507 29.1314 27.2985 28.972 28.8998ZM25.8875 31.5609C27.3402 32.7238 28.7012 32.5576 30.1802 30.586C27.9472 29.2926 27.0076 29.9629 25.8875 31.5609ZM23.9773 30.7056C24.5534 30.7556 25.1109 30.9547 25.6296 31.2978C26.0013 30.774 26.3703 30.3445 26.7725 30.0426C27.1326 29.2527 27.3926 28.3116 27.5562 27.2712C25.6972 27.8369 24.5 29.0871 23.9773 30.7056ZM21.7385 31.6591C21.3088 31.7785 20.8977 32.0481 20.4157 32.3695C20.2864 32.4558 20.1517 32.5451 20.0116 32.6356C20.1642 32.7284 20.3254 32.8205 20.4962 32.9105C20.8503 32.618 21.1949 32.3462 21.5314 32.1354C22.6151 33.3456 24.5839 33.5349 26.524 32.6483C25.1476 30.8413 23.3844 30.6311 21.7385 31.6591ZM18.9835 33.2218C18.3146 33.5472 17.5002 33.8272 16.44 33.9547L16.2306 33.9798L17.3298 34.8923L17.3746 34.8809C18.1647 34.6799 18.8863 34.2026 19.5461 33.6871C19.4158 33.5807 19.2874 33.4743 19.1621 33.3699C19.1023 33.32 19.0429 33.271 18.9835 33.2218Z" fill="#FCC341"/>
<path d="M6.08755 18.0965C5.10972 16.9586 5.16352 15.0199 6.14115 12.9728C6.63156 13.6451 6.97271 14.2513 7.19171 14.8099C7.10941 15.5906 6.84936 16.1747 6.60904 16.7103C6.50562 16.9409 6.40797 17.1589 6.32508 17.386C6.23261 17.6399 6.1543 17.8765 6.08755 18.0965ZM13.249 31.8213C13.2163 31.7856 13.0553 31.6555 12.913 31.5403C12.4714 31.1832 11.7106 30.4043 11.2668 29.8537L11.1696 29.7331C10.5997 29.6871 9.93927 29.8302 9.14178 30.2197C9.9299 32.1019 11.8585 32.6608 13.2944 31.8709L13.249 31.8213ZM14.2455 10.4213C13.7185 10.3161 13.2448 10.2852 12.8247 10.3241C12.7723 10.4161 12.7175 10.5056 12.6579 10.5899C12.2273 11.1975 11.6355 11.5739 10.9008 11.717C12.2167 12.0597 13.3014 11.7869 14.2455 10.4213ZM14.3167 10.0654L14.6935 10.1407C15.8092 10.0287 16.8062 9.45284 17.617 8.30962C17.295 8.21118 16.9787 8.13027 16.6713 8.0681C15.8004 8.8355 14.6764 9.2167 13.233 9.26333C13.1754 9.50644 13.1009 9.7362 13.0096 9.95082C13.3926 9.93607 13.8225 9.96656 14.3167 10.0654ZM17.7912 5.81653C15.6612 5.91178 14.1772 6.49824 13.364 7.51831C13.394 8.00453 13.3735 8.46864 13.3044 8.89926C15.3515 8.81258 16.858 7.98221 17.7912 5.81653ZM9.95202 11.8104C9.8771 12.0593 9.79241 12.2881 9.69715 12.5059C9.73083 12.4893 9.7663 12.4738 9.80078 12.4575C10.179 12.135 10.5973 11.7413 10.9651 11.333C12.7867 10.8812 13.2956 8.72291 12.8783 6.57257C10.844 8.09759 9.94206 9.61305 10.6214 11.2082C10.4024 11.4272 10.1734 11.6333 9.95202 11.8104ZM6.8655 16.8034C6.76347 17.0309 6.66703 17.2458 6.58652 17.4668C6.44703 17.8494 6.34102 18.1907 6.25832 18.495C6.40379 18.7335 6.53033 18.9736 6.64072 19.2152C6.71804 18.8188 6.82884 18.3412 6.98586 17.8049C7.18414 17.3601 7.46551 17.0463 7.64107 16.7797C7.78972 16.5539 7.94037 16.3375 8.15818 16.1149C9.86135 16.1165 11.4063 14.6098 11.6373 12.2594C9.465 12.6669 7.6877 13.8675 7.96867 15.9172C7.85768 16.0557 7.75565 16.2024 7.65223 16.3518C7.53884 16.5156 7.42287 16.6818 7.29115 16.843C7.58447 15.9455 7.85249 15.0777 7.83177 14.2854L7.83496 14.2828C7.90451 14.1288 7.98521 13.9783 8.08325 13.8338C8.33752 13.4584 8.68804 13.1248 9.11767 12.8391C9.6033 12.0105 9.81951 11.0101 10.0835 9.38549C6.99642 10.5407 6.69652 12.7867 7.49022 14.4169C7.47189 15.4467 7.15445 16.1589 6.8655 16.8034ZM9.42256 16.2177C7.88797 17.3053 7.02671 18.2597 6.66404 19.2632C7.06298 20.1567 7.21901 21.075 7.14309 22.039C8.79704 20.7185 9.07742 19.8411 9.42256 16.2177ZM6.13995 23.8399C6.30057 23.9817 6.47493 24.1049 6.65567 24.2247C7.20227 24.406 7.70663 24.6503 8.16236 24.9396C8.02068 24.6921 7.90909 24.4417 7.82918 24.1874C7.47826 23.5563 7.19689 22.8541 7.13292 22.1837C7.09606 22.5426 7.02372 22.9089 6.92249 23.2821C7.02791 23.5922 7.16919 23.9024 7.3312 24.2025C7.23117 24.1422 7.13372 24.0919 7.03747 24.0429C6.84597 23.9451 6.65089 23.845 6.43149 23.6579C7.03468 21.884 7.08151 19.8074 5.09318 17.5289C3.73614 20.5453 4.80782 23.4599 6.13995 23.8399ZM9.67503 19.7885C7.50417 22.2282 7.78275 23.9624 8.85244 25.3097C8.87237 25.3711 8.89309 25.4318 8.91501 25.4918C9.1918 25.7244 9.44209 25.9731 9.66746 26.2301C9.67205 26.1721 9.68141 26.1118 9.68779 26.0528C9.53993 25.8196 9.39805 25.558 9.27829 25.2744C10.3555 24.359 11.1953 22.103 9.67503 19.7885ZM10.4638 29.178C10.5455 29.1989 10.6284 29.2254 10.711 29.2547C10.0385 28.6104 9.6856 27.7643 9.6567 26.761C8.75101 25.5833 7.24691 24.5236 5.29823 24.2904C6.79695 28.68 7.91806 29.6837 10.4638 29.178ZM11.2869 29.2638C11.7261 29.9412 12.3534 30.5477 12.871 30.9987C12.6852 30.6544 12.523 30.2722 12.3897 29.8445C12.1141 29.5518 11.8527 29.2405 11.6249 28.9241C12.2399 27.1916 12.0557 25.6642 10.5646 24.1714C9.58596 26.5625 9.99068 28.2954 11.2869 29.2638ZM15.6735 30.7227C15.2204 29.1485 14.1172 27.8891 12.354 27.2329C12.3969 29.0741 12.8749 30.5597 13.6941 31.5234C14.3067 31.0372 14.9767 30.7693 15.6735 30.7227ZM23.1538 33.9951C21.1623 33.7554 20.039 33.0299 19.1363 32.4468C18.7539 32.1997 18.4011 31.9745 18.0325 31.8149C16.3367 30.6579 14.4956 30.8166 13.07 32.6885C14.9934 33.5675 16.9465 33.3904 18.0359 32.2079C18.4181 32.4592 18.8146 32.7776 19.2243 33.109C20.1119 33.827 21.1178 34.6408 22.2192 34.9212L22.264 34.9325L23.3632 34.0201L23.1538 33.9951Z" fill="#FCC341"/>
<path d="M19.7703 0C8.85145 0 0 8.85145 0 19.7703C0 30.6892 8.85145 39.5407 19.7703 39.5407C30.6892 39.5407 39.5407 30.6892 39.5407 19.7703C39.5407 8.85145 30.689 0 19.7703 0ZM19.7703 37.4025C10.0323 37.4025 2.13819 29.5084 2.13819 19.7703C2.13819 10.0323 10.0323 2.13819 19.7703 2.13819C29.5084 2.13819 37.4025 10.0323 37.4025 19.7703C37.4025 29.5084 29.5082 37.4025 19.7703 37.4025Z" fill="#FCC341"/>
</svg>
