<svg width="97" height="93" viewBox="0 0 97 93" fill="none" xmlns="http://www.w3.org/2000/svg">
<g clip-path="url(#clip0)">
<path d="M80.0692 0L68.2996 23.7486C65.7328 21.8047 63.1088 20.0131 60.1806 18.6405C58.0697 17.6495 55.9592 16.944 53.8868 16.5249V71.9697L57.4231 70.6551L65.5425 87.7326C62.3672 89.1052 59.1537 90.2866 55.7689 91.0683C52.6318 91.7927 49.3804 92.1932 46.0527 92.1932C42.725 92.1932 39.4737 91.7927 36.3173 91.0683C32.9328 90.2866 29.7383 89.1055 26.563 87.7326L34.682 70.6551L38.2186 71.9697V16.5249C36.1274 16.944 34.0357 17.6495 31.9252 18.6405C28.997 20.0127 26.3727 21.8044 23.8058 23.7486L12.0363 0H80.0692Z" fill="#2C661F"/>
<path d="M77.6462 1.50562H14.4594L24.3535 21.4694C26.2967 20.0636 28.6626 18.5076 31.2889 17.2765C33.5031 16.2372 35.7358 15.4872 37.9241 15.0487L39.7208 14.6885V16.5251V71.97V74.1345L37.6963 73.3818L35.4472 72.5452L28.5958 86.9562C31.5656 88.1753 34.1567 89.0245 36.6544 89.6011C39.7949 90.3215 42.9575 90.687 46.0528 90.687C49.154 90.687 52.3097 90.3215 55.4318 89.6011C57.9519 89.0192 60.5493 88.17 63.509 86.9562L56.6576 72.5455L54.4089 73.3818L52.3847 74.1345V71.97V16.5248V14.6849L54.1834 15.0491C56.3853 15.4945 58.6174 16.2442 60.8176 17.2768C63.4436 18.5076 65.8089 20.0636 67.7517 21.4694L77.6462 1.50562Z" fill="white"/>
<path d="M74.5167 3.44995H17.5887L25.0914 18.5883C26.6981 17.5161 28.5081 16.4338 30.4676 15.5153C32.8212 14.4104 35.2027 13.6114 37.5441 13.1424L41.6609 12.3171V16.5253V71.9701V76.9297L37.0224 75.2046L36.4359 74.9869L31.243 85.9097C33.3366 86.6957 35.2436 87.2803 37.0904 87.7064C40.0864 88.3939 43.1039 88.7431 46.0534 88.7431C49.0081 88.7431 52.0174 88.3939 54.9974 87.7064C56.8598 87.2763 58.7731 86.6911 60.863 85.9084L55.6702 74.9869L55.0844 75.2046L50.4455 76.9297V71.9701V16.525V12.3091L54.5679 13.1434C56.9213 13.6194 59.3008 14.4181 61.6405 15.5166C63.599 16.4341 65.4083 17.5164 67.0144 18.5883L74.5167 3.44995Z" fill="#2C661F"/>
<path d="M23.8247 61.3728H17.2839C15.1733 57.1033 13.9754 52.2809 13.9754 47.1921C13.9754 47.0014 13.9754 46.83 13.9943 46.6588C12.1312 46.0297 10.4959 45.4198 8.9556 44.8096C8.48069 45.4767 6.40801 46.2963 4.06897 46.2584C4.06897 46.5633 4.06897 46.8686 4.06897 47.1921C4.06897 48.0118 4.0879 48.8314 4.12576 49.651C6.50266 49.4988 8.99346 50.2991 9.31661 51.0804C9.1645 51.8238 7.09215 53.196 4.54388 53.5965C4.71525 54.7017 4.94341 55.8076 5.1905 56.8936C7.54813 56.341 10.1529 56.7604 10.5527 57.3889C10.6098 58.1709 8.67032 59.9053 6.2931 60.706C6.65443 61.7922 7.07289 62.8405 7.51027 63.8695C9.67794 62.9357 12.3209 62.9357 12.8725 63.4314C13.0057 64.0986 11.4272 66.2331 9.25982 67.4153C9.79218 68.4063 10.3813 69.3781 10.9901 70.3118C13.0246 68.9776 15.5915 68.5395 16.1999 68.9396C16.4662 69.5878 15.4204 71.8372 13.3291 73.514C14.0325 74.3909 14.7741 75.2488 15.5539 76.0681C17.4174 74.3143 19.8132 73.4381 20.4406 73.8003C20.8016 74.3909 20.0982 76.8687 18.3868 78.8132C19.2234 79.5565 20.0982 80.2616 21.0108 80.9284C21.8666 79.7846 22.9314 78.9084 23.8247 78.394C24.5095 77.9936 25.118 77.8028 25.4411 77.879C25.9356 78.394 25.6696 80.8712 24.2814 83.1585C25.0037 83.5966 25.7456 84.0161 26.4869 84.4162L31.8109 73.2091V63.8695L36.7358 58.9522V54.1115L29.4344 61.3728H23.8247ZM28.3504 73.9718C26.7343 72.8852 25.2129 71.6651 23.8247 70.3118C22.1134 68.654 20.5734 66.824 19.2612 64.8416H23.8247H28.3504V73.9718Z" fill="#D59739"/>
<path d="M74.7073 61.3729H73.7093C73.0819 62.9159 71.8747 64.163 70.3583 64.8418H72.7302C71.4181 66.8242 69.8781 68.6538 68.1664 70.312C66.7788 71.6656 65.2571 72.8853 63.6411 73.9719V64.8418H65.1113C63.2449 64.0048 61.8451 62.3034 61.4253 60.247L59.5518 58.3838C58.0793 58.1378 56.6403 57.8758 55.2554 57.6018V58.9521L60.1802 63.8693V73.2089L65.5042 84.416C66.2455 84.0159 66.9874 83.5964 67.7101 83.1583C66.3215 80.871 66.0555 78.3939 66.55 77.8789C66.8735 77.8026 67.4819 77.9934 68.1661 78.3939C69.0598 78.9082 70.1245 79.7847 70.9807 80.9282C71.8933 80.2611 72.7681 79.5563 73.6043 78.813C71.8933 76.8685 71.1899 74.391 71.5506 73.8001C72.1783 73.4379 74.5741 74.3145 76.4375 76.0679C77.2173 75.2486 77.9586 74.3907 78.662 73.5138C76.5707 71.837 75.5249 69.5876 75.7909 68.9394C76.399 68.5393 78.9662 68.9774 81.001 70.3117C81.6095 69.3779 82.1989 68.4058 82.731 67.4151C80.5636 66.233 78.9855 64.0984 79.1183 63.4312C79.6699 62.9359 82.3125 62.9359 84.4802 63.8693C84.7123 63.3231 84.9385 62.7708 85.154 62.2112C82.4145 61.8709 79.0868 61.3629 75.041 60.6725C74.9321 60.9072 74.8218 61.1415 74.7073 61.3729Z" fill="#D59739"/>
<path d="M96.726 55.4835C96.5546 54.397 94.4255 53.1013 90.6033 51.5766C87.5612 50.3565 82.6745 48.3172 78.0157 46.4303C76.59 45.8394 77.2173 44.9815 76.2287 44.7718C75.8099 45.3057 75.1447 46.8111 74.137 46.8304C73.6236 46.8497 72.9202 46.7542 72.1218 46.6207C72.0265 46.1253 71.9315 45.2675 72.3307 45.2102C72.8252 45.1533 72.9584 44.6765 73.3387 44.4285C73.9846 44.0091 74.0042 43.1519 74.0042 42.4082C74.0042 41.5316 73.8328 41.3409 73.3005 40.8072C72.4635 39.9683 71.3609 39.187 70.2769 39.4919C69.2879 39.7589 69.3451 40.7496 68.3374 41.207C67.2156 41.7217 67.8622 41.8169 67.6722 42.5223C67.558 42.9987 66.9874 43.7228 67.5009 44.2375C67.6908 44.4279 68.6988 44.4279 68.6988 44.4662C68.547 45.0757 68.3567 45.5145 68.0525 45.7621C66.8546 45.4952 65.6945 45.2285 64.7248 45.0377C61.1121 44.3327 59.7624 43.837 59.9902 42.1029C58.3363 42.0456 56.8146 41.8742 55.37 41.6645V44.314L58.7538 44.9808C58.6399 44.7331 58.5642 44.3713 58.5257 43.9325H59.5147C59.6286 44.4092 59.8378 44.9046 60.1424 45.2668L72.9388 47.8398C73.9843 48.0498 74.9733 48.2403 76.5704 46.1054C75.7906 48.2403 74.9544 49.1741 72.3114 48.6214L55.3696 45.1716V46.6963C63.3558 48.3927 71.3038 50.1082 79.2708 51.8619L78.3007 52.4718C70.6001 50.8519 62.9756 49.1934 55.3696 47.5545V48.3548C65.1432 50.5276 80.5065 54.111 87.4659 55.7116L85.4121 55.9216C78.5674 54.4539 64.744 51.5566 55.3696 49.5176V56.665C57.2899 57.0462 59.3436 57.4084 61.4157 57.7323C61.9673 54.7588 64.5913 52.4911 67.7287 52.4911C71.2842 52.4911 74.1746 55.3883 74.1746 58.952C74.1746 59.1621 74.1556 59.3715 74.1367 59.5619C81.9519 60.9152 89.139 61.9638 93.037 61.792C95.0143 61.7158 96.2554 59.7527 96.6114 58.4753C96.9685 57.1983 96.813 56.0362 96.726 55.4835Z" fill="#FF0000"/>
<path d="M29.1112 44.5235C32.6475 44.5235 35.5571 47.4208 35.5571 50.9662C35.5571 51.0993 35.5382 51.2328 35.5382 51.366C35.7474 51.4043 36.5079 51.6137 36.7358 51.652V45.3245C31.5831 44.2952 25.8217 43.0564 20.7637 41.8746C20.2124 41.7411 19.6797 41.6076 19.1477 41.4935C18.5964 41.36 18.064 41.2265 17.5502 41.093C17.5502 41.093 17.5502 41.093 17.5313 41.093L16.8658 40.3117C17.0939 40.3686 17.3221 40.4072 17.5502 40.4641C18.064 40.5783 31.7734 43.4183 36.7361 44.4283V43.6087C31.3171 42.5225 26.0309 41.3596 20.764 40.064C20.5548 40.0067 20.3648 39.9684 20.1556 39.9112L20.764 39.8349L21.4296 39.7587C25.4036 40.6356 28.7124 41.2834 32.7056 42.0647C32.7624 41.6073 32.9338 41.1119 33.1806 40.5783L33.9414 40.7691C33.6372 41.2644 33.4658 41.7788 33.3712 42.1982C33.5993 42.2172 33.8275 42.2748 34.0557 42.3127C34.1128 41.8743 34.2838 41.3979 34.5123 40.9022L35.2728 41.074C34.9686 41.5694 34.8162 42.0457 34.7215 42.4459C34.9497 42.5031 35.1779 42.5414 35.4249 42.579C35.4817 42.0837 35.5963 41.7408 35.9002 41.2068L36.5657 41.3783C36.3186 41.9122 36.1287 42.3886 36.1855 42.7318L36.7368 42.8271V38.3672C30.9568 37.4906 25.5564 36.8045 20.7647 36.3278C20.2134 36.2706 19.6807 36.2133 19.1487 36.1753C18.5974 36.1181 18.0643 36.0848 17.5512 36.0415C7.07456 35.1653 0 35.4919 0 37.7513C0 40.073 7.09216 43.4373 17.5499 46.6964C18.0637 46.8685 18.596 47.0203 19.1473 47.1921C19.6797 47.3445 20.2121 47.5163 20.7634 47.6691C21.5621 47.8975 22.3797 48.1262 23.2163 48.3552C24.2239 46.1058 26.4869 44.5235 29.1112 44.5235ZM17.5499 45.9151L17.531 45.8957C17.0179 45.2096 16.7133 44.3331 16.8462 42.9985L17.9491 43.0178C17.8541 44.0471 17.9684 45.0761 18.2726 46.1055L17.5499 45.9151ZM19.1473 46.3345H19.1284C18.615 45.6291 18.3108 44.7526 18.4439 43.4373H19.5276C19.4516 44.4663 19.5655 45.4956 19.87 46.5249L19.1473 46.3345ZM20.7637 46.9251L20.7069 46.9061C20.2313 46.2197 19.9843 45.3048 20.0792 44.0661H21.1632C21.0872 45.0572 21.144 46.0865 21.4674 47.0779L20.7637 46.9251Z" fill="#FF0000"/>
<path d="M67.7291 53.4248C64.7059 53.4248 62.234 55.9026 62.234 58.952C62.234 61.9827 64.7059 64.4605 67.7291 64.4605C70.7712 64.4605 73.2434 61.983 73.2434 58.952C73.2437 55.9026 70.7712 53.4248 67.7291 53.4248ZM67.7291 62.3256C65.8845 62.3256 64.3635 60.8012 64.3635 58.952C64.3635 57.0841 65.8845 55.5783 67.7291 55.5783C69.5925 55.5783 71.0946 57.0841 71.0946 58.952C71.0946 60.8012 69.5925 62.3256 67.7291 62.3256Z" fill="#FF0000"/>
<path d="M67.7291 56.1316C69.288 56.1316 70.5434 57.389 70.5434 58.9523C70.5434 60.4959 69.2883 61.754 67.7291 61.754C66.1888 61.754 64.9341 60.4959 64.9341 58.9523C64.9341 57.389 66.1888 56.1316 67.7291 56.1316Z" fill="#FF0000"/>
<path d="M29.1302 45.4578C26.0877 45.4578 23.6158 47.9356 23.6158 50.9663C23.6158 54.0157 26.0877 56.4931 29.1302 56.4931C32.1537 56.4931 34.6252 54.0157 34.6252 50.9663C34.6252 47.9359 32.1537 45.4578 29.1302 45.4578ZM29.1302 54.3396C27.2667 54.3396 25.7457 52.8342 25.7457 50.9663C25.7457 49.117 27.2667 47.5927 29.1302 47.5927C30.9747 47.5927 32.4957 49.117 32.4957 50.9663C32.4957 52.8342 30.9744 54.3396 29.1302 54.3396Z" fill="#FF0000"/>
<path d="M29.1302 48.1643C30.6705 48.1643 31.9256 49.422 31.9256 50.9663C31.9256 52.51 30.6705 53.787 29.1302 53.787C27.5713 53.787 26.3159 52.51 26.3159 50.9663C26.3159 49.422 27.571 48.1643 29.1302 48.1643Z" fill="#FF0000"/>
<path d="M87.8658 45.0577C85.4886 45.2102 82.9981 44.4099 82.6746 43.6282C82.8267 42.8849 84.8991 41.5126 87.4474 41.1125C87.276 40.0069 87.0478 38.9014 86.8007 37.8151C84.4428 38.3677 81.8384 37.9483 81.4389 37.3194C81.3814 36.5378 83.3209 34.8033 85.6981 34.0027C85.3368 32.9161 84.9184 31.8681 84.481 30.8388C82.3133 31.7726 79.6707 31.7726 79.1191 31.2772C78.9862 30.6101 80.5644 28.4752 82.7318 27.2937C82.1997 26.3024 81.6102 25.3306 81.0018 24.3965C78.967 25.7308 76.4001 26.1689 75.7917 25.7691C75.5254 25.1206 76.5715 22.8715 78.6628 21.1946C77.9594 20.3178 77.2178 19.4602 76.4383 18.6406C74.5749 20.3944 72.179 21.2709 71.5513 20.9087C71.5158 20.8504 71.4909 20.7735 71.476 20.681L69.6281 24.4095L69.1442 25.3862C70.467 26.7751 71.6739 28.2705 72.7307 29.8667H68.1668H63.6415V22.2766C62.5619 21.5815 61.4011 20.8994 60.181 20.2915V30.8388L55.3707 35.6423V40.4836L62.5579 33.3356H68.1672H74.708C76.5064 36.9732 77.6389 41.0126 77.9358 45.2754C78.0165 45.3763 78.1344 45.4599 78.3685 45.5567C80.6574 46.4839 83.0453 47.4659 85.1525 48.3321C85.3953 48.4323 85.6367 48.5315 85.8765 48.6301C86.5075 48.5086 87.2026 48.4387 87.9236 48.45C87.9236 48.1454 87.9236 47.8401 87.9236 47.5162C87.9226 46.6966 87.9037 45.8773 87.8658 45.0577Z" fill="#D59739"/>
<path d="M28.3504 29.8671H23.8248H19.2616C20.338 28.2405 21.5704 26.7185 22.9228 25.308L22.4777 24.4098L20.5322 20.4839C20.5293 20.6677 20.499 20.8131 20.4409 20.9087C19.8132 21.2705 17.4174 20.3944 15.5543 18.6406C14.7745 19.4602 14.0329 20.3178 13.3295 21.1946C15.4208 22.8715 16.4669 25.1209 16.2002 25.7691C15.5921 26.1689 13.0249 25.7308 10.9905 24.3965C10.3817 25.3303 9.79254 26.3024 9.26018 27.2937C11.4278 28.4752 13.006 30.6101 12.8728 31.2772C12.3212 31.7726 9.6783 31.7726 7.51063 30.8388C7.07325 31.8678 6.65512 32.9161 6.29346 34.0027C6.8225 34.1808 7.32963 34.4055 7.7979 34.6552C7.99484 34.6532 8.19378 34.6522 8.39736 34.6522C8.39769 34.6522 8.39802 34.6522 8.39836 34.6522C10.6726 34.6522 13.3989 34.7744 16.5141 35.0144C16.7552 34.4461 17.0116 33.8862 17.2836 33.3356H23.8244H29.4337L32.9843 36.867C34.2164 37.0408 35.4668 37.2235 36.7351 37.4153V35.7561L31.811 30.8391V20.3501C30.5901 20.9646 29.4284 21.6517 28.3504 22.3505V29.8671Z" fill="#D59739"/>
</g>
<defs>
<clipPath id="clip0">
<rect width="96.8357" height="92.1928" fill="white"/>
</clipPath>
</defs>
</svg>
