<svg width="177" height="93" viewBox="0 0 177 93" fill="none" xmlns="http://www.w3.org/2000/svg">
<g clip-path="url(#clip0)">
<path d="M107.413 89.1746C107.413 87.3172 108.873 86.123 110.697 86.123C112.554 86.123 113.981 87.3172 113.981 89.1746C113.981 91.032 112.554 92.1928 110.697 92.1928C108.873 92.1928 107.413 91.032 107.413 89.1746ZM12.9688 67.9148C6.9321 67.9148 0.995361 71.9613 0.995361 79.9875C0.995361 88.0469 6.73341 92.0269 12.8694 92.0269C19.901 92.0269 24.81 87.0851 24.81 79.9875C24.81 71.9613 18.9061 67.9148 12.9688 67.9148ZM12.9025 86.2894C9.91747 86.2894 7.06486 84.1334 7.06486 79.9878C7.06486 75.7426 9.95058 73.6862 12.9688 73.6862C15.8545 73.6862 18.7399 75.842 18.7399 79.9878C18.7402 84.1331 15.7883 86.2894 12.9025 86.2894ZM34.7587 86.1233H43.1501V91.5627H28.6889V68.3459H34.7587V86.1233ZM55.9963 86.1564H58.9483V91.5958H46.9748V86.1564H49.9268V73.8184H47.2404V68.379H58.6833V73.8184H55.9969V86.1564H55.9963ZM83.9086 68.3128H86.0647V91.5958H79.9949V80.8831L75.0528 86.057H74.3562L69.4144 80.8831V91.5961H63.3446V68.3131H65.5006L74.7213 78.3626L83.9086 68.3128ZM100.685 68.3459C97.235 68.3128 93.8851 68.3459 90.4355 68.3459V91.5627H96.5053V85.5594H100.685C106.191 85.5594 109.01 81.3142 109.01 77.0687C109.109 72.6907 106.257 68.3459 100.685 68.3459ZM100.685 80.2862H96.406V73.6197H100.685C102.343 73.6197 103.205 75.2447 103.205 76.9031C103.205 78.5944 102.277 80.2862 100.685 80.2862ZM134.384 79.4237C135.545 78.495 136.308 76.8366 136.308 75.4106C136.308 71.0989 133.29 68.2799 128.978 68.2799H118.729V91.4636H129.906C134.682 91.4636 137.27 88.3789 137.27 84.3992C137.27 82.276 136.274 80.3855 134.384 79.4237ZM124.798 73.5532H128.546C129.773 73.5532 130.37 74.5812 130.337 75.6093C130.304 76.538 129.707 77.4336 128.546 77.4336H124.798V73.5532ZM129.475 86.1895H124.798V82.3423H129.442C129.84 82.3423 130.139 82.4416 130.437 82.5744C131.001 82.9723 131.299 83.7017 131.266 84.3986C131.167 85.3273 130.636 86.1895 129.475 86.1895ZM147.437 86.057H156.16V91.5961H141.367V68.3793H155.862V73.6528H147.437V76.9694H155.199V82.276H147.437V86.057ZM177 68.379V73.686H171.329V91.5958H165.458V73.686H159.753V68.379H177Z" fill="white"/>
<path d="M88.9976 1.47681C73.6125 1.47681 61.1403 13.949 61.1403 29.3342C61.1403 44.7193 73.6125 57.1915 88.9976 57.1915C104.383 57.1915 116.855 44.7193 116.855 29.3342C116.855 13.949 104.383 1.47681 88.9976 1.47681Z" fill="#771610"/>
<path d="M98.4641 15.017C98.7494 15.0161 99.0179 15.0309 99.2721 15.059C99.3795 15.2689 99.4986 15.4676 99.6296 15.6527C100.251 16.5296 101.098 17.0828 102.148 17.3081C100.495 17.4231 99.2665 16.8596 98.4641 15.017ZM99.0684 14.6066C98.8892 14.1619 98.7568 13.6752 98.6725 13.1546C97.5156 11.4692 94.7827 11.3235 91.6912 12.269C93.5917 14.9496 96.1824 15.5261 99.0684 14.6066ZM94.4542 11.1765C95.932 11.0668 97.1794 11.2992 98.0921 11.8728C98.2689 11.984 98.4259 12.112 98.5746 12.2466C98.5495 11.7779 98.5602 11.2895 98.6054 10.7865C97.4963 9.39247 95.4559 8.65892 92.5335 8.66335C93.0693 9.76383 93.7106 10.5831 94.4542 11.1765ZM102.142 16.7555C102.757 17.4388 103.467 18.0943 104.08 18.6017C103.919 18.2507 103.782 17.8764 103.659 17.4752C103.326 17.2097 102.981 16.8998 102.651 16.5704C103.659 14.2036 102.321 11.955 99.3026 9.69228C98.6838 12.8828 99.4392 16.0855 102.142 16.7555ZM106.255 23.851C106.344 23.953 106.418 24.0514 106.486 24.1487C106.49 23.7543 106.536 23.3395 106.629 22.9031C106.625 22.3821 106.527 21.9022 106.346 21.4643C105.528 20.7648 104.941 20.1025 104.494 19.3757C103.563 18.7794 102.398 18.3657 101.144 18.1307C101.485 21.5944 103.749 23.8232 106.255 23.851ZM106.916 21.2399C106.908 21.4428 106.917 21.642 106.939 21.8395C107.125 21.3381 107.374 20.8088 107.695 20.2506C108.265 17.9967 107.378 15.3357 103.449 13.8662C104.095 17.8377 104.546 19.2968 106.916 21.2399ZM107.331 25.9955C107.775 26.4638 108.142 26.9321 108.436 27.4079C110.56 25.8796 110.677 22.6364 109.03 19.188C106.941 22.0518 106.663 24.1106 107.331 25.9955ZM104.43 24.2525C104.944 29.6431 105.361 30.9376 107.833 32.9058C107.672 31.4204 107.885 30.0106 108.475 28.6396C107.91 27.1985 106.64 25.8187 104.43 24.2525ZM110.854 25.9485C107.904 29.3291 107.973 32.4103 108.868 35.0423C108.543 35.3197 108.253 35.4684 107.969 35.6133C107.911 35.6428 107.853 35.6727 107.794 35.7035C107.951 35.3847 108.092 35.0565 108.205 34.7221C108.058 34.2204 107.951 33.7287 107.881 33.2447C107.695 34.9161 106.71 36.5733 105.87 37.5573C106.349 37.2318 106.864 36.9364 107.408 36.6789C107.71 36.4281 108.024 36.2185 108.333 36.0163C108.674 35.7936 109.006 35.5751 109.304 35.3111C111.279 34.7443 112.867 30.4219 110.854 25.9485ZM104.238 38.9177C104.477 38.6749 104.732 38.4378 105.005 38.211C105.171 37.8278 105.313 37.4207 105.416 36.9973C106.62 35.1387 106.092 32.7252 104.102 29.521C102.627 32.855 103.273 36.0033 104.724 37.2457C104.576 37.6277 104.399 37.9845 104.21 38.3104C104.227 38.5167 104.236 38.7193 104.238 38.9177ZM102.651 42.8799C102.459 42.9101 102.277 42.9595 102.105 43.0245C102.157 41.8702 102.776 40.5631 103.814 39.3706C103.888 38.2613 103.679 36.9728 103.132 35.5098C100.719 37.7838 100.479 40.1805 101.507 42.9737C101.258 43.3075 100.981 43.6309 100.693 43.9378C101.034 43.8542 101.396 43.8252 101.786 43.8553C102.178 43.5603 102.584 43.3586 102.99 43.2537C106.485 43.905 108.048 42.4518 110.128 36.3465C105.843 37.1688 102.887 40.5039 102.651 42.8799ZM98.0744 46.8283C100.23 48.5538 102.249 48.3072 104.444 45.3819C101.13 43.4627 99.7363 44.4573 98.0744 46.8283ZM95.2398 45.5593C96.0946 45.6335 96.9219 45.9289 97.6915 46.438C98.2429 45.6607 98.7905 45.0235 99.3872 44.5756C99.9214 43.4036 100.307 42.0071 100.55 40.4634C97.7917 41.3028 96.0156 43.1579 95.2398 45.5593ZM91.918 46.9741C91.2805 47.1512 90.6705 47.5512 89.9553 48.0281C89.7634 48.1561 89.5635 48.2886 89.3557 48.4228C89.5822 48.5606 89.8214 48.6972 90.0748 48.8309C90.6002 48.3968 91.1114 47.9935 91.6108 47.6807C93.2186 49.4763 96.1398 49.7572 99.0184 48.4418C96.9766 45.7606 94.3602 45.4487 91.918 46.9741ZM87.8306 49.2927C86.8381 49.7755 85.6297 50.1909 84.0567 50.3802L83.746 50.4174L85.3769 51.7713L85.4434 51.7544C86.6157 51.4561 87.6864 50.748 88.6653 49.9831C88.4719 49.8252 88.2815 49.6673 88.0956 49.5124C88.0066 49.4385 87.9185 49.3657 87.8306 49.2927Z" fill="#FCC341"/>
<path d="M68.6959 26.8504C67.245 25.1622 67.3248 22.2856 68.7754 19.2482C69.503 20.2458 70.0092 21.1452 70.3342 21.974C70.212 23.1324 69.8262 23.999 69.4696 24.7938C69.3162 25.1358 69.1713 25.4593 69.0483 25.7964C68.9114 26.1731 68.7949 26.524 68.6959 26.8504ZM79.3216 47.2146C79.2731 47.1617 79.0342 46.9686 78.8231 46.7977C78.1679 46.2679 77.039 45.1121 76.3806 44.2952L76.2363 44.1163C75.3907 44.048 74.4108 44.2603 73.2276 44.8383C74.3969 47.6309 77.2584 48.4603 79.389 47.2883L79.3216 47.2146ZM80.8005 15.4624C80.0185 15.3063 79.3157 15.2605 78.6924 15.3182C78.6147 15.4548 78.5334 15.5875 78.445 15.7126C77.806 16.6141 76.9279 17.1726 75.8377 17.3849C77.79 17.8934 79.3997 17.4887 80.8005 15.4624ZM80.9058 14.9344L81.4649 15.0461C83.1204 14.88 84.5996 14.0255 85.8027 12.3292C85.3249 12.1832 84.8556 12.0631 84.3994 11.9709C83.1074 13.1095 81.4398 13.6751 79.298 13.7443C79.2125 14.105 79.1019 14.4459 78.9665 14.7644C79.5348 14.7425 80.1725 14.7877 80.9058 14.9344ZM86.0614 8.63013C82.901 8.77146 80.6991 9.64161 79.4925 11.1551C79.5372 11.8766 79.5067 12.5652 79.4041 13.2041C82.4412 13.0755 84.6768 11.8435 86.0614 8.63013ZM74.4298 17.5236C74.3186 17.8928 74.1929 18.2323 74.0516 18.5554C74.1016 18.5309 74.1542 18.5078 74.2054 18.4836C74.7665 18.0052 75.3871 17.421 75.9329 16.8151C78.6357 16.1449 79.3908 12.9425 78.7717 9.7519C75.7532 12.0147 74.415 14.2632 75.4229 16.63C75.0983 16.955 74.7583 17.2607 74.4298 17.5236ZM69.8504 24.9318C69.6991 25.2695 69.556 25.5882 69.4365 25.9161C69.2295 26.4838 69.0722 26.9903 68.9495 27.4418C69.1654 27.7957 69.3531 28.152 69.5169 28.5103C69.6316 27.9222 69.796 27.2135 70.029 26.4179C70.3232 25.7579 70.7407 25.2923 71.0012 24.8967C71.2218 24.5617 71.4453 24.2406 71.7684 23.9103C74.2955 23.9127 76.5879 21.6771 76.9305 18.1897C73.7074 18.7943 71.0704 20.5757 71.4873 23.617C71.3226 23.8225 71.1712 24.0401 71.0177 24.2619C70.8495 24.5049 70.6774 24.7515 70.482 24.9907C70.9172 23.659 71.3149 22.3713 71.2841 21.1958L71.2889 21.1919C71.3921 20.9634 71.5118 20.7401 71.6573 20.5258C72.0346 19.9687 72.5546 19.4738 73.1921 19.0498C73.9126 17.8204 74.2334 16.3361 74.6252 13.9256C70.0447 15.6393 69.5994 18.9717 70.7774 21.3906C70.7499 22.9189 70.2792 23.9756 69.8504 24.9318ZM73.6442 24.0629C71.3672 25.6766 70.0893 27.0926 69.5512 28.5816C70.1432 29.9074 70.3747 31.2698 70.262 32.7002C72.7161 30.7408 73.1321 29.439 73.6442 24.0629ZM68.7739 35.3722C69.0122 35.5827 69.2709 35.7654 69.5391 35.9431C70.3501 36.2122 71.0985 36.5747 71.7747 37.004C71.5644 36.6368 71.3989 36.2651 71.2803 35.8879C70.7596 34.9515 70.3421 33.9095 70.2472 32.9149C70.1925 33.4474 70.0852 33.9908 69.935 34.5446C70.0914 35.0047 70.301 35.465 70.5414 35.9103C70.393 35.8207 70.2484 35.7462 70.1056 35.6735C69.8215 35.5283 69.532 35.3799 69.2065 35.1023C70.1015 32.4702 70.1709 29.389 67.2208 26.0084C65.207 30.4839 66.7971 34.8084 68.7739 35.3722ZM74.0191 29.361C70.7981 32.9808 71.2114 35.554 72.7986 37.5531C72.8281 37.6441 72.8589 37.7343 72.8914 37.8233C73.3021 38.1683 73.6734 38.5373 74.0078 38.9188C74.0146 38.8327 74.0285 38.7431 74.038 38.6556C73.8186 38.3097 73.6081 37.9215 73.4304 37.5007C75.0285 36.1424 76.2744 32.7952 74.0191 29.361ZM75.189 43.2926C75.3103 43.3236 75.4333 43.363 75.556 43.4064C74.5581 42.4505 74.0345 41.1951 73.9916 39.7064C72.6478 37.959 70.4161 36.3866 67.5247 36.0407C69.7484 42.5537 71.4119 44.043 75.189 43.2926ZM76.4107 43.42C77.0624 44.425 77.9932 45.325 78.761 45.9941C78.4855 45.4832 78.2448 44.9161 78.047 44.2816C77.6381 43.8473 77.2502 43.3854 76.9122 42.9159C77.8246 40.3454 77.5514 38.0791 75.3389 35.8642C73.8866 39.4119 74.4871 41.9831 76.4107 43.42ZM82.919 45.5846C82.2467 43.2488 80.6098 41.3802 77.9938 40.4066C78.0573 43.1385 78.7666 45.3428 79.9821 46.7726C80.891 46.0512 81.8851 45.6538 82.919 45.5846ZM94.0181 50.4401C91.0632 50.0844 89.3965 49.0079 88.0572 48.1427C87.4898 47.7761 86.9664 47.442 86.4194 47.2052C83.9033 45.4885 81.1716 45.7239 79.0564 48.5014C81.9102 49.8056 84.808 49.5427 86.4245 47.7882C86.9916 48.1611 87.5799 48.6335 88.1878 49.1252C89.5047 50.1905 90.9973 51.3981 92.6315 51.8141L92.698 51.8309L94.3289 50.477L94.0181 50.4401Z" fill="#FCC341"/>
<path d="M88.9977 0C72.7968 0 59.6635 13.1333 59.6635 29.3342C59.6635 45.5351 72.7968 58.6684 88.9977 58.6684C105.199 58.6684 118.332 45.5351 118.332 29.3342C118.332 13.1333 105.198 0 88.9977 0ZM88.9977 55.4959C74.5489 55.4959 62.836 43.783 62.836 29.3342C62.836 14.8855 74.5489 3.17253 88.9977 3.17253C103.446 3.17253 115.159 14.8855 115.159 29.3342C115.159 43.783 103.446 55.4959 88.9977 55.4959Z" fill="#FCC341"/>
</g>
<defs>
<clipPath id="clip0">
<rect width="176.005" height="92.1928" fill="white" transform="translate(0.995361)"/>
</clipPath>
</defs>
</svg>
